<svg xmlns="http://www.w3.org/2000/svg" width="1129" height="663" viewBox="0 0 1129 663">
  <title>Focus on What Matters</title>
  <circle cx="321" cy="321" r="321" fill="#f2f2f2" />
  <ellipse cx="559" cy="635.49998" rx="514" ry="27.50002" fill="#3f3d56" />
  <ellipse cx="558" cy="627" rx="460" ry="22" opacity="0.2" />
  <rect x="131" y="152.5" width="840" height="50" fill="#3f3d56" />
  <path d="M166.5,727.3299A21.67009,21.67009,0,0,0,188.1701,749H984.8299A21.67009,21.67009,0,0,0,1006.5,727.3299V296h-840Z" transform="translate(-35.5 -118.5)" fill="#3f3d56" />
  <path d="M984.8299,236H188.1701A21.67009,21.67009,0,0,0,166.5,257.6701V296h840V257.6701A21.67009,21.67009,0,0,0,984.8299,236Z" transform="translate(-35.5 -118.5)" fill="#3f3d56" />
  <path d="M984.8299,236H188.1701A21.67009,21.67009,0,0,0,166.5,257.6701V296h840V257.6701A21.67009,21.67009,0,0,0,984.8299,236Z" transform="translate(-35.5 -118.5)" opacity="0.2" />
  <circle cx="181" cy="147.5" r="13" fill="#3f3d56" />
  <circle cx="217" cy="147.5" r="13" fill="#3f3d56" />
  <circle cx="253" cy="147.5" r="13" fill="#3f3d56" />
  <rect x="168" y="213.5" width="337" height="386" rx="5.33505" fill="#606060" />
  <rect x="603" y="272.5" width="284" height="22" rx="5.47638" fill="#2e8555" />
  <rect x="537" y="352.5" width="416" height="15" rx="5.47638" fill="#2e8555" />
  <rect x="537" y="396.5" width="416" height="15" rx="5.47638" fill="#2e8555" />
  <rect x="537" y="440.5" width="416" height="15" rx="5.47638" fill="#2e8555" />
  <rect x="537" y="484.5" width="416" height="15" rx="5.47638" fill="#2e8555" />
  <g id="React-icon" transform="translate(100 300)">
      <path id="Path_330" data-name="Path 330" d="M263.668,117.179c0-5.827-7.3-11.35-18.487-14.775,2.582-11.4,1.434-20.477-3.622-23.382a7.861,7.861,0,0,0-4.016-1v4a4.152,4.152,0,0,1,2.044.466c2.439,1.4,3.5,6.724,2.672,13.574-.2,1.685-.52,3.461-.914,5.272a86.9,86.9,0,0,0-11.386-1.954,87.469,87.469,0,0,0-7.459-8.965c5.845-5.433,11.332-8.41,15.062-8.41V78h0c-4.931,0-11.386,3.514-17.913,9.611-6.527-6.061-12.982-9.539-17.913-9.539v4c3.712,0,9.216,2.959,15.062,8.356a84.687,84.687,0,0,0-7.405,8.947,83.732,83.732,0,0,0-11.4,1.972c-.412-1.793-.717-3.532-.932-5.2-.843-6.85.2-12.175,2.618-13.592a3.991,3.991,0,0,1,2.062-.466v-4h0a8,8,0,0,0-4.052,1c-5.039,2.9-6.168,11.96-3.568,23.328-11.153,3.443-18.415,8.947-18.415,14.757,0,5.828,7.3,11.35,18.487,14.775-2.582,11.4-1.434,20.477,3.622,23.382a7.882,7.882,0,0,0,4.034,1c4.931,0,11.386-3.514,17.913-9.611,6.527,6.061,12.982,9.539,17.913,9.539a8,8,0,0,0,4.052-1c5.039-2.9,6.168-11.96,3.568-23.328C256.406,128.511,263.668,122.988,263.668,117.179Zm-23.346-11.96c-.663,2.313-1.488,4.7-2.421,7.083-.735-1.434-1.506-2.869-2.349-4.3-.825-1.434-1.7-2.833-2.582-4.2C235.517,104.179,237.974,104.645,240.323,105.219Zm-8.212,19.1c-1.4,2.421-2.833,4.716-4.321,6.85-2.672.233-5.379.359-8.1.359-2.708,0-5.415-.126-8.069-.341q-2.232-3.2-4.339-6.814-2.044-3.523-3.73-7.136c1.112-2.4,2.367-4.805,3.712-7.154,1.4-2.421,2.833-4.716,4.321-6.85,2.672-.233,5.379-.359,8.1-.359,2.708,0,5.415.126,8.069.341q2.232,3.2,4.339,6.814,2.044,3.523,3.73,7.136C234.692,119.564,233.455,121.966,232.11,124.315Zm5.792-2.331c.968,2.4,1.793,4.805,2.474,7.136-2.349.574-4.823,1.058-7.387,1.434.879-1.381,1.757-2.8,2.582-4.25C236.4,124.871,237.167,123.419,237.9,121.984ZM219.72,141.116a73.921,73.921,0,0,1-4.985-5.738c1.614.072,3.263.126,4.931.126,1.685,0,3.353-.036,4.985-.126A69.993,69.993,0,0,1,219.72,141.116ZM206.38,130.555c-2.546-.377-5-.843-7.352-1.417.663-2.313,1.488-4.7,2.421-7.083.735,1.434,1.506,2.869,2.349,4.3S205.5,129.192,206.38,130.555ZM219.63,93.241a73.924,73.924,0,0,1,4.985,5.738c-1.614-.072-3.263-.126-4.931-.126-1.686,0-3.353.036-4.985.126A69.993,69.993,0,0,1,219.63,93.241ZM206.362,103.8c-.879,1.381-1.757,2.8-2.582,4.25-.825,1.434-1.6,2.869-2.331,4.3-.968-2.4-1.793-4.805-2.474-7.136C201.323,104.663,203.8,104.179,206.362,103.8Zm-16.227,22.449c-6.348-2.708-10.454-6.258-10.454-9.073s4.106-6.383,10.454-9.073c1.542-.663,3.228-1.255,4.967-1.811a86.122,86.122,0,0,0,4.034,10.92,84.9,84.9,0,0,0-3.981,10.866C193.38,127.525,191.694,126.915,190.134,126.252Zm9.647,25.623c-2.439-1.4-3.5-6.724-2.672-13.574.2-1.686.52-3.461.914-5.272a86.9,86.9,0,0,0,11.386,1.954,87.465,87.465,0,0,0,7.459,8.965c-5.845,5.433-11.332,8.41-15.062,8.41A4.279,4.279,0,0,1,199.781,151.875Zm42.532-13.663c.843,6.85-.2,12.175-2.618,13.592a3.99,3.99,0,0,1-2.062.466c-3.712,0-9.216-2.959-15.062-8.356a84.689,84.689,0,0,0,7.405-8.947,83.731,83.731,0,0,0,11.4-1.972A50.194,50.194,0,0,1,242.313,138.212Zm6.9-11.96c-1.542.663-3.228,1.255-4.967,1.811a86.12,86.12,0,0,0-4.034-10.92,84.9,84.9,0,0,0,3.981-10.866c1.775.556,3.461,1.165,5.039,1.829,6.348,2.708,10.454,6.258,10.454,9.073C259.67,119.994,255.564,123.562,249.216,126.252Z" fill="#61dafb"/>
      <path id="Path_331" data-name="Path 331" d="M320.8,78.4Z" transform="translate(-119.082 -0.328)" fill="#61dafb"/>
      <circle id="Ellipse_112" data-name="Ellipse 112" cx="8.194" cy="8.194" r="8.194" transform="translate(211.472 108.984)" fill="#61dafb"/>
      <path id="Path_332" data-name="Path 332" d="M520.5,78.1Z" transform="translate(-282.975 -0.082)" fill="#61dafb"/>
    </g>
 
</svg>
